<svg id="bold" enable-background="new 0 0 24 24" height="512" viewBox="0 0 24 24" width="512" xmlns="http://www.w3.org/2000/svg"><path d="m1 7.5c.552 0 1-.447 1-1v-1.5c0-.552.449-1 1-1h1.5c.552 0 1-.447 1-1s-.448-1-1-1h-1.5c-1.654 0-3 1.346-3 3v1.5c0 .553.448 1 1 1z"/><path d="m21 2h-1.5c-.552 0-1 .447-1 1s.448 1 1 1h1.5c.551 0 1 .448 1 1v1.5c0 .553.448 1 1 1s1-.447 1-1v-1.5c0-1.654-1.346-3-3-3z"/><path d="m3 22h1.5c.552 0 1-.447 1-1s-.448-1-1-1h-1.5c-.551 0-1-.448-1-1v-1.5c0-.553-.448-1-1-1s-1 .447-1 1v1.5c0 1.654 1.346 3 3 3z"/><path d="m23 16.5c-.552 0-1 .447-1 1v1.5c0 .552-.449 1-1 1h-1.5c-.552 0-1 .447-1 1s.448 1 1 1h1.5c1.654 0 3-1.346 3-3v-1.5c0-.553-.448-1-1-1z"/><path d="m12 7.75c-2.343 0-4.25 1.906-4.25 4.25s1.907 4.25 4.25 4.25 4.25-1.906 4.25-4.25-1.907-4.25-4.25-4.25zm0 6.5c-1.241 0-2.25-1.01-2.25-2.25s1.009-2.25 2.25-2.25 2.25 1.01 2.25 2.25-1.009 2.25-2.25 2.25z"/></svg>